<svg id="eWU2gmswCAb1" xmlns="http://www.w3.org/2000/svg" xmlns:xlink="http://www.w3.org/1999/xlink" viewBox="20 29 25 25" shape-rendering="geometricPrecision" text-rendering="geometricPrecision"><g id="eWU2gmswCAb2"><g id="eWU2gmswCAb3"><path id="eWU2gmswCAb4" d="M105.872000,77.611000C105.846660,77.610973,105.821916,77.603306,105.801000,77.589000C94.801000,70.189000,78.113000,77.162000,77.946000,77.233000C77.903376,77.254719,77.852198,77.250857,77.813317,77.222988C77.774435,77.195118,77.754339,77.147893,77.761216,77.100551C77.768093,77.053210,77.800795,77.013655,77.846000,76.998000C78.015000,76.927000,94.823000,69.904000,105.946000,77.377000C105.991549,77.408739,106.011445,77.466223,105.995263,77.519329C105.979080,77.572435,105.930509,77.609055,105.875000,77.610000Z" fill="rgb(255,255,255)" stroke="none" stroke-width="1"/><path id="eWU2gmswCAb5" d="M105.322000,84.674000C105.282555,84.673454,105.245603,84.654608,105.222000,84.623000C97.117000,73.815000,79.852000,78.929000,79.679000,78.982000C79.613713,78.996770,79.548071,78.958745,79.528405,78.894763C79.508738,78.830781,79.541689,78.762450,79.604000,78.738000C79.779000,78.685000,97.212000,73.517000,105.427000,84.470000C105.453158,84.508348,105.456504,84.557853,105.435744,84.599372C105.414985,84.640892,105.373373,84.667918,105.327000,84.670000Z" fill="rgb(255,255,255)" stroke="none" stroke-width="1"/><path id="eWU2gmswCAb6" d="M102.937000,88.527000C102.897765,88.526542,102.860908,88.508113,102.837000,88.477000C94.727000,77.845000,77.550000,82.058000,77.377000,82.100000C77.309094,82.115401,77.241005,82.074987,77.222000,82.008000C77.204924,81.939839,77.245987,81.870656,77.314000,81.853000C77.489000,81.810000,94.827000,77.553000,103.039000,88.320000C103.065158,88.358348,103.068504,88.407853,103.047744,88.449372C103.026985,88.490892,102.985373,88.517918,102.939000,88.520000Z" fill="rgb(255,255,255)" stroke="none" stroke-width="1"/><path id="eWU2gmswCAb7" d="M22.128000,77.611000C22.072491,77.610055,22.023920,77.573435,22.007737,77.520329C21.991555,77.467223,22.011451,77.409739,22.057000,77.378000C33.177000,69.905000,49.987000,76.928000,50.157000,76.999000C50.188323,77.012228,50.213097,77.037375,50.225854,77.068892C50.238611,77.100410,50.238304,77.135709,50.225000,77.167000C50.195868,77.230605,50.122172,77.260434,50.057000,77.235000C49.889000,77.164000,33.205000,70.195000,22.202000,77.590000C22.180125,77.604542,22.154253,77.611885,22.128000,77.611000Z" fill="rgb(255,255,255)" stroke="none" stroke-width="1"/><path id="eWU2gmswCAb8" d="M22.678000,84.674000C22.631627,84.671918,22.590015,84.644892,22.569256,84.603372C22.548496,84.561853,22.551842,84.512348,22.578000,84.474000C30.790000,73.518000,48.224000,78.685000,48.400000,78.737000C48.446862,78.747602,48.483840,78.783554,48.495756,78.830099C48.507672,78.876645,48.492519,78.925943,48.456516,78.957759C48.420514,78.989575,48.369726,78.998550,48.325000,78.981000C48.152000,78.928000,30.888000,73.815000,22.782000,84.622000C22.757770,84.655117,22.719032,84.674486,22.678000,84.674000Z" fill="rgb(255,255,255)" stroke="none" stroke-width="1"/><path id="eWU2gmswCAb9" d="M25.063000,88.527000C25.016627,88.524918,24.975015,88.497892,24.954256,88.456372C24.933496,88.414853,24.936842,88.365348,24.963000,88.327000C33.176000,77.561000,50.514000,81.817000,50.688000,81.860000C50.750284,81.882182,50.785425,81.948151,50.769085,82.012216C50.752744,82.076281,50.690300,82.117359,50.625000,82.107000C50.452000,82.064000,33.275000,77.851000,25.166000,88.482000C25.140441,88.512079,25.102435,88.528683,25.063000,88.527000Z" fill="rgb(255,255,255)" stroke="none" stroke-width="1"/></g></g><line id="eWU2gmswCAb10" x1="-5.009089" y1="-5.796317" x2="7.410987" y2="5.384003" transform="matrix(0.85203395326107 0.05692583767251 -0.05637218137144 0.84374713683043 25.84648800000000 43.68360100000001)" fill="none" stroke="rgb(230,102,102)" stroke-width="1.280000"/><line id="eWU2gmswCAb11" x1="3.161868" y1="-5.470144" x2="-8.150287" y2="5.469503" transform="matrix(0.99999857051788 -0.00169084659264 0.00169084659264 0.99999857051788 39.15495900000000 43.10710300000000)" fill="none" stroke="rgb(89,228,139)" stroke-width="1.280000"/><path id="eWU2gmswCAb12" d="M81.574009,51.326986L83.433882,52.814247L83.868521,50.920789L81.574009,51.326986Z" transform="matrix(1 0 0 1 -40.69314699999996 -14.06792400000000)" fill="rgb(89,228,139)" stroke="rgb(89,228,139)" stroke-width="0.256000"/></svg>