<svg id="eqRporwfzvU1" xmlns="http://www.w3.org/2000/svg" xmlns:xlink="http://www.w3.org/1999/xlink" viewBox="0 0 1650 1410" shape-rendering="geometricPrecision" text-rendering="geometricPrecision"><g id="eqRporwfzvU2" transform="matrix(1.33333000000000 0 0 -1.33333000000000 0 5360)"><g id="eqRporwfzvU3" transform="matrix(0.10000000000000 0 0 0.10000000000000 0.00000000000023 0.00000000000023)"><path id="eqRporwfzvU4" d="M13970.300000,12002.900000C13614.400000,12453.400000,13166.600000,12840.400000,12651.600000,13141.300000C12977,13548.500000,13683.800000,14356.700000,14219.500000,14430C14262.200000,14435,14303.900000,14414.400000,14325.800000,14377.300000C14428,14210.200000,14619.300000,13629.800000,13970.300000,12002.900000ZM6061.040000,11984.700000C5403.420000,13625.400000,5595.750000,14209.500000,5698.330000,14377.200000C5720.270000,14414.300000,5761.920000,14434.900000,5804.580000,14430C6344.130000,14356.200000,7057.140000,13536.900000,7379.280000,13132.700000C6863.580000,12828.900000,6415.860000,12438.600000,6061.040000,11984.700000ZM14903.300000,15113C14108.300000,15662.400000,12724.100000,14149.600000,12301,13650.700000C11817.300000,13865.200000,11291.200000,14013.600000,10737,14082.700000C10505.300000,14124.300000,10266.500000,14145.900000,10022.800000,14145.900000C9779.080000,14145.900000,9540.480000,14124.300000,9308.720000,14082.700000C8754.590000,14013.700000,8228.540000,13865.300000,7744.840000,13650.700000C7321.670000,14149.800000,5937.450000,15662.400000,5141.820000,15113C4513.500000,14678.200000,5007.710000,12794.600000,5411.710000,11578.200000C5048.450000,10938.100000,4843.540000,10212.400000,4843.540000,9443.500000C4843.540000,9196.100000,4864.720000,8953.200000,4905.680000,8716.100000C4980.860000,8280.300000,5122.480000,7864.300000,5320.950000,7477.100000C6041.870000,6069.500000,7513.150000,5040.400000,9270.440000,4809.100000C9516.090000,4776.800000,9767.260000,4760,10022.800000,4760C10278.200000,4760,10529.300000,4776.800000,10774.800000,4809.100000C12530.300000,5039.900000,14000.300000,6067,14722.300000,7472.100000C14922.200000,7861.100000,15064.800000,8279.100000,15140.200000,8717C15181,8953.800000,15202.200000,9196.400000,15202.200000,9443.500000C15202.200000,10212.300000,14997.300000,10937.900000,14634.200000,11577.900000C15038,12794,15532.500000,14677.800000,14903.300000,15113" transform="matrix(1.03193205423205 0 0 1 -4107.32670673371103 24934.21495803735161)" fill="rgb(87,91,109)" stroke="none" stroke-width="1"/><path id="eqRporwfzvU5" d="M34595,7731.500000C33921.300000,6420.300000,32549.600000,5461.900000,30911.500000,5246.500000C30682.400000,5216.300000,30448.100000,5200.700000,30209.700000,5200.700000C29971.300000,5200.700000,29736.900000,5216.300000,29507.700000,5246.500000C27867.900000,5462.300000,26495,6422.700000,25822.200000,7736.100000L26723.300000,7970.100000C27899.100000,8275.300000,28861.600000,9118.100000,29319.500000,10243.200000L29329,10267.900000C29437.500000,10534.400000,29609.300000,10770.400000,29829.500000,10955.700000C30043.700000,11135.700000,30356.200000,11135.700000,30570.300000,10955.700000C30790.300000,10770.400000,30961.800000,10534.300000,31070,10267.900000L31080.400000,10243.200000C31538,9117.900000,32500.600000,8274.900000,33676.600000,7970L34595,7731.500000" transform="matrix(1.08013498662348 0 0 1 -26395.44705731477006 24475.46872117180828)" fill="rgb(238,239,238)" stroke="none" stroke-width="1"/><path id="eqRporwfzvU6" d="M27247.626100,10167.500000L27102.400000,10312.726100L29019.565775,12230.005156L29164.905156,12084.779056L27247.626100,10167.500000" transform="matrix(1 0 0 1 -24190.90573976437008 24467.33418583541788)" fill="rgb(238,239,238)" stroke="none" stroke-width="1"/><path id="eqRporwfzvU7" d="M29164.905156,10134.800000L28991.385074,10784.799602L28821.634757,10614.426482L27244.542329,12197.305156L27102.400000,12054.641316L28679.492428,10471.762642L28517.281642,10308.956716L29164.905156,10134.800000" transform="matrix(1 0 0 1 -24190.90573976437008 24509.80277200688579)" fill="rgb(230,102,102)" stroke="none" stroke-width="1"/><path id="eqRporwfzvU8" d="M31602.126100,12197.305156L31456.900000,12052.079056L33374.179056,10134.800000L33519.405156,10280.139381L31602.126100,12197.305156" transform="matrix(1 0 0 1 -23974.95002737507457 24467.33418583541788)" fill="rgb(238,239,238)" stroke="none" stroke-width="1"/><path id="eqRporwfzvU9" d="M33519.405156,12197.305156L33345.894402,11547.305555L33176.042340,11717.678674L31599.034689,10134.800000L31456.900000,10277.575122L33033.907652,11860.342514L32871.816455,12023.148441L33519.405156,12197.305156" transform="matrix(1 0 0 1 -23974.95002737507457 24467.33418583541788)" fill="rgb(89,228,139)" stroke="none" stroke-width="1"/><path id="eqRporwfzvU10" d="M36131.700000,8167.800000C36128.200000,8167.800000,36124.700000,8168.900000,36121.700000,8170.900000C34563.300000,9219.200000,32199.200000,8231.400000,32175.500000,8221.300000C32169.500000,8218.300000,32162.200000,8218.800000,32156.700000,8222.800000C32151.200000,8226.700000,32148.300000,8233.400000,32149.300000,8240.100000C32150.300000,8246.800000,32154.900000,8252.400000,32161.300000,8254.600000C32185.300000,8264.700000,34566.400000,9259.600000,36142.200000,8200.900000C36148.700000,8196.400000,36151.500000,8188.300000,36149.200000,8180.800000C36146.900000,8173.300000,36140,8168.100000,36132.200000,8167.900000L36131.700000,8167.800000" transform="matrix(1 0 0 1 -23974.95002737504910 24467.33418583546154)" fill="rgb(255,255,255)" stroke="none" stroke-width="1"/><path id="eqRporwfzvU11" d="M36053.800000,7167.200000C36048.200000,7167.300000,36043,7169.900000,36039.700000,7174.400000C34891.400000,8705.600000,32445.500000,7981.100000,32421,7973.600000C32411.800000,7971.500000,32402.500000,7976.800000,32399.700000,7985.900000C32396.900000,7995,32401.600000,8004.700000,32410.400000,8008.100000C32435.200000,8015.600000,34904.900000,8747.800000,36068.700000,7196.100000C36072.400000,7190.600000,36072.900000,7183.600000,36069.900000,7177.700000C36067,7171.900000,36061.100000,7168,36054.500000,7167.700000L36053.800000,7167.200000" transform="matrix(1 0 0 1 -23974.95002737504910 24467.33418583547245)" fill="rgb(255,255,255)" stroke="none" stroke-width="1"/><path id="eqRporwfzvU12" d="M35715.900000,6621.300000C35710.400000,6621.400000,35705.200000,6624,35701.800000,6628.400000C34552.900000,8134.600000,32119.400000,7537.800000,32094.900000,7531.800000C32085.300000,7529.600000,32075.600000,7535.400000,32072.900000,7544.900000C32070.500000,7554.500000,32076.300000,7564.300000,32086,7566.800000C32110.800000,7572.900000,34567,8176,35730.400000,6650.700000C35734.100000,6645.200000,35734.600000,6638.200000,35731.600000,6632.300000C35728.700000,6626.400000,35722.800000,6622.600000,35716.200000,6622.300000L35715.900000,6621.300000" transform="matrix(1 0 0 1 -23974.95002737504910 24467.33418583547245)" fill="rgb(255,255,255)" stroke="none" stroke-width="1"/><path id="eqRporwfzvU13" d="M24267.800000,8167.800000C24260,8167.900000,24253.100000,8173.100000,24250.800000,8180.600000C24248.500000,8188.200000,24251.300000,8196.300000,24257.800000,8200.800000C25833.100000,9259.500000,28214.600000,8264.500000,28238.700000,8254.500000C28243.100000,8252.600000,28246.600000,8249.100000,28248.400000,8244.600000C28250.200000,8240.100000,28250.200000,8235.100000,28248.300000,8230.700000C28244.200000,8221.700000,28233.700000,8217.500000,28224.500000,8221.100000C28200.700000,8231.100000,25837.100000,9218.400000,24278.300000,8170.800000C24275.200000,8168.700000,24271.500000,8167.700000,24267.800000,8167.800000" transform="matrix(1 0 0 1 -23974.95002737508185 24467.33418583546154)" fill="rgb(255,255,255)" stroke="none" stroke-width="1"/><path id="eqRporwfzvU14" d="M24345.700000,7167.200000C24339.200000,7167.500000,24333.300000,7171.300000,24330.300000,7177.200000C24327.400000,7183.100000,24327.900000,7190.100000,24331.600000,7195.500000C25495,8747.600000,27964.800000,8015.600000,27989.800000,8008.300000C27996.400000,8006.800000,28001.600000,8001.700000,28003.300000,7995.100000C28005,7988.500000,28002.900000,7981.500000,27997.800000,7977C27992.700000,7972.500000,27985.500000,7971.200000,27979.100000,7973.700000C27954.600000,7981.200000,25508.800000,8705.600000,24360.500000,7174.500000C24357,7169.900000,24351.600000,7167.100000,24345.700000,7167.200000" transform="matrix(1 0 0 1 -23974.95002737508185 24467.33418583547245)" fill="rgb(255,255,255)" stroke="none" stroke-width="1"/><path id="eqRporwfzvU15" d="M24683.600000,6621.300000C24677.100000,6621.600000,24671.200000,6625.400000,24668.200000,6631.300000C24665.300000,6637.200000,24665.800000,6644.200000,24669.500000,6649.700000C25833,8174.900000,28289.200000,7571.900000,28313.900000,7565.800000C28322.700000,7562.700000,28327.700000,7553.300000,28325.400000,7544.300000C28323.100000,7535.200000,28314.200000,7529.400000,28305,7530.800000C28280.500000,7536.900000,25847,8133.800000,24698.200000,6627.700000C24694.600000,6623.400000,24689.200000,6621.100000,24683.600000,6621.300000" transform="matrix(1 0 0 1 -23974.95002737508185 24467.33418583547245)" fill="rgb(255,255,255)" stroke="none" stroke-width="1"/><path id="eqRporwfzvU16" d="M30123.600000,8931.100000L30123.600000,8355.700000C30123.600000,8355.700000,28937.200000,7700.300000,29093.700000,7554.700000C29250.200000,7409.100000,30180.700000,8249,30180.700000,8249C30180.700000,8210.100000,31111.800000,7409.100000,31267.800000,7554.700000C31423.800000,7700.300000,30237.800000,8355.700000,30237.800000,8355.700000L30237.800000,8931.100000L30123.600000,8931.100000" transform="matrix(1 0 0 1 -23974.95002737508185 24467.33418583547245)" fill="rgb(47,49,59)" stroke="none" stroke-width="1"/><path id="eqRporwfzvU17" d="M30781.200000,9098.600000C30708.800000,8950.900000,30520.600000,8803.700000,30180.700000,8808.700000C29841.200000,8803.700000,29653,8951.100000,29580.600000,9098.600000C29550.400000,9161.500000,29554.800000,9235.600000,29592.300000,9294.500000C29629.700000,9353.400000,29694.900000,9388.800000,29764.700000,9388.200000L30597,9388.200000C30666.800000,9388.800000,30732,9353.400000,30769.400000,9294.500000C30806.900000,9235.600000,30811.300000,9161.500000,30781.200000,9098.600000" transform="matrix(1 0 0 1 -23974.95002737508185 24467.33418583542516)" fill="rgb(87,91,109)" stroke="none" stroke-width="1"/></g></g></svg>