<svg id="upArrow" xmlns="http://www.w3.org/2000/svg" xmlns:xlink="http://www.w3.org/1999/xlink" viewBox="0 0 100 400" shape-rendering="geometricPrecision" text-rendering="geometricPrecision"><g id="ewG75ifXDmx2" transform="matrix(0.99132899255994 0.00125353493548 0.00179456906301 -1.41919326774185 0 5360)"><g id="ewG75ifXDmx3" transform="matrix(0.10000000000000 0 0 0.10000000000000 0.00000000000023 0.00000000000023)"><path id="ewG75ifXDmx4" d="M29164.905156,10134.800000L28991.385074,10784.799602L28821.634757,10614.426482L27244.542329,12197.305156L27102.400000,12054.641316L28679.492428,10471.762642L28517.281642,10308.956716L29164.905156,10134.800000" transform="matrix(-0.70853823648212 0.70567242219234 -0.70567242219234 -0.70853823648212 28243.81608984843479 24398.89755446932395)" fill="rgb(89,228,139)" stroke="none" stroke-width="1"/><path id="ewG75ifXDmx5" d="M36131.700000,8167.800000C36128.200000,8167.800000,36124.700000,8168.900000,36121.700000,8170.900000C34563.300000,9219.200000,32199.200000,8231.400000,32175.500000,8221.300000C32169.500000,8218.300000,32162.200000,8218.800000,32156.700000,8222.800000C32151.200000,8226.700000,32148.300000,8233.400000,32149.300000,8240.100000C32150.300000,8246.800000,32154.900000,8252.400000,32161.300000,8254.600000C32185.300000,8264.700000,34566.400000,9259.600000,36142.200000,8200.900000C36148.700000,8196.400000,36151.500000,8188.300000,36149.200000,8180.800000C36146.900000,8173.300000,36140,8168.100000,36132.200000,8167.900000L36131.700000,8167.800000" transform="matrix(1 0 0 1 -23974.95002737504910 24467.33418583546154)" fill="rgb(255,255,255)" stroke="none" stroke-width="1"/><path id="ewG75ifXDmx6" d="M24267.800000,8167.800000C24260,8167.900000,24253.100000,8173.100000,24250.800000,8180.600000C24248.500000,8188.200000,24251.300000,8196.300000,24257.800000,8200.800000C25833.100000,9259.500000,28214.600000,8264.500000,28238.700000,8254.500000C28243.100000,8252.600000,28246.600000,8249.100000,28248.400000,8244.600000C28250.200000,8240.100000,28250.200000,8235.100000,28248.300000,8230.700000C28244.200000,8221.700000,28233.700000,8217.500000,28224.500000,8221.100000C28200.700000,8231.100000,25837.100000,9218.400000,24278.300000,8170.800000C24275.200000,8168.700000,24271.500000,8167.700000,24267.800000,8167.800000" transform="matrix(1 0 0 1 -23974.95002737508185 24467.33418583546154)" fill="rgb(255,255,255)" stroke="none" stroke-width="1"/></g></g></svg>